<?xml version="1.0" standalone="no"?>
<!DOCTYPE svg PUBLIC "-//W3C//DTD SVG 20010904//EN"
 "http://www.w3.org/TR/2001/REC-SVG-20010904/DTD/svg10.dtd">
<svg version="1.0" xmlns="http://www.w3.org/2000/svg"
 width="512.000000pt" height="512.000000pt" viewBox="0 0 512.000000 512.000000"
 preserveAspectRatio="xMidYMid meet">
<metadata>
Created by potrace 1.14, written by Peter Selinger 2001-2017
</metadata>
<g transform="translate(0.000000,512.000000) scale(0.100000,-0.100000)"
fill="#000000" stroke="none">
<path d="M905 5110 c-182 -38 -320 -172 -355 -345 -5 -27 -87 -880 -181 -1895
-181 -1960 -182 -1973 -144 -2100 50 -164 165 -318 290 -387 44 -25 63 -29
163 -33 l114 -5 28 -85 c48 -148 107 -260 136 -260 9 0 66 52 126 115 l111
116 111 -117 c91 -96 115 -116 132 -110 24 7 101 160 137 271 l22 70 1620 5
c1525 5 1622 6 1648 23 41 26 60 72 55 129 -8 80 -69 128 -163 128 l-45 0 0
308 1 307 61 30 c82 39 120 98 126 189 5 92 -305 3399 -325 3460 -20 61 -87
136 -151 168 l-47 23 -1715 1 c-943 1 -1733 -2 -1755 -6z m3450 -81 c58 -15
119 -68 139 -122 11 -29 63 -544 171 -1708 85 -916 155 -1687 155 -1713 0 -81
-44 -138 -120 -155 -30 -7 -719 -11 -2101 -11 l-2056 0 -52 -55 c-75 -80 -104
-148 -109 -261 -7 -144 43 -277 149 -396 l51 -58 89 0 c86 0 89 -1 89 -22 0
-13 3 -40 6 -61 l7 -37 -87 0 c-68 0 -96 4 -128 21 -96 49 -190 168 -244 309
-49 128 -47 157 139 2165 92 985 172 1810 177 1834 23 92 87 181 164 226 96
56 9 54 1834 54 1197 1 1696 -2 1727 -10z m275 -3829 l0 -40 -1994 0 c-1800 0
-1996 -2 -2010 -16 -19 -19 -20 -36 -4 -52 9 -9 469 -12 2010 -12 l1998 0 0
-50 0 -50 -2028 0 c-1653 0 -2031 -2 -2046 -13 -11 -8 -17 -23 -14 -38 3 -24
5 -24 116 -27 l114 -3 -7 -62 c-3 -34 -7 -95 -8 -134 l-2 -73 -70 1 -70 0 -42
53 c-23 29 -57 84 -75 122 -31 64 -33 76 -33 174 0 115 12 152 76 225 l31 35
2029 0 2029 0 0 -40z m0 -435 l0 -135 -1500 0 -1500 0 0 45 0 45 718 0 c394 0
722 4 728 8 17 11 22 35 12 55 -8 16 -53 17 -737 17 l-729 0 -4 46 c-2 25 -1
47 1 50 2 2 681 4 1508 4 l1503 0 0 -135z m-3094 78 c4 -27 7 -109 7 -183 0
-187 -30 -334 -99 -488 l-26 -57 -102 108 c-66 69 -110 107 -123 107 -14 0
-56 -37 -121 -105 -54 -58 -102 -105 -105 -105 -7 0 -62 133 -81 200 -40 136
-56 331 -39 503 l6 67 338 0 338 0 7 -47z m3282 -309 c24 -16 29 -53 12 -85
-11 -19 -39 -19 -1615 -19 l-1604 0 5 38 c3 20 7 47 10 60 l4 22 1583 0 c1416
0 1585 -2 1605 -16z"/>
<path d="M1461 4364 c-63 -32 -105 -85 -120 -152 -20 -92 -135 -1216 -127
-1254 11 -61 64 -129 125 -160 l53 -28 482 0 c541 0 531 -1 594 75 63 77 63
183 -1 260 -60 74 -66 75 -480 75 l-367 0 5 38 c7 49 25 204 25 214 0 5 168 8
373 8 359 0 373 1 406 21 47 28 68 56 81 107 21 84 -33 178 -117 201 -23 7
-170 11 -370 11 -260 0 -333 3 -333 13 0 16 19 184 26 225 l5 32 335 0 c367 0
367 0 418 60 54 65 54 155 0 220 -52 61 -41 60 -522 60 l-438 0 -53 -26z m931
-65 c11 -6 26 -26 34 -45 12 -29 12 -39 0 -68 -8 -19 -23 -39 -34 -45 -14 -7
-139 -11 -371 -11 -304 0 -352 -2 -365 -16 -9 -8 -16 -23 -16 -32 0 -9 -9 -93
-20 -186 -14 -120 -16 -174 -9 -182 8 -10 99 -14 390 -16 l379 -3 26 -26 c36
-37 36 -94 -1 -126 l-26 -23 -385 0 c-360 0 -385 -1 -402 -18 -26 -26 -63
-362 -43 -386 12 -14 61 -16 398 -16 336 0 389 -2 419 -16 87 -42 87 -176 0
-218 -30 -14 -89 -16 -490 -16 -363 0 -463 3 -489 14 -39 16 -84 67 -94 103
-7 30 111 1166 128 1228 12 46 31 70 74 96 28 18 59 19 453 19 284 0 430 -4
444 -11z"/>
<path d="M2785 4376 c-40 -17 -90 -75 -105 -120 -14 -44 -40 -1247 -28 -1316
21 -120 148 -200 255 -159 15 5 43 25 61 42 66 63 67 64 72 372 l5 280 260
-320 c146 -179 279 -332 302 -348 70 -50 167 -49 242 1 53 36 88 85 107 149
14 47 12 95 -25 645 -23 326 -43 610 -46 632 -15 109 -108 173 -220 152 -37
-7 -97 -53 -118 -90 -8 -15 -13 -126 -17 -385 l-5 -363 -235 353 c-262 393
-297 442 -343 470 -37 22 -116 25 -162 5z m134 -83 c12 -10 158 -220 324 -468
179 -266 310 -451 320 -453 47 -9 47 -6 47 440 0 447 2 462 49 488 47 25 113
4 134 -44 21 -45 100 -1229 86 -1280 -30 -110 -161 -160 -241 -93 -15 12 -158
184 -318 382 -228 281 -298 361 -317 363 -14 2 -30 -2 -34 -10 -5 -7 -9 -158
-9 -336 0 -358 -3 -376 -62 -412 -51 -31 -84 -26 -129 19 l-39 39 0 198 c0
110 5 401 10 647 11 478 12 486 62 521 30 21 91 20 117 -1z"/>
</g>
</svg>
